<svg width="42" height="42" viewBox="0 0 42 42" fill="none" xmlns="http://www.w3.org/2000/svg">
<path opacity="0.2" d="M36.75 11.8125V35.4375H23.625V27.5625H18.375V35.4375H5.25V17.0625H13.125V6.5625H28.875V11.8125H36.75Z" fill="#00A3A5"/>
<path d="M39.375 34.125H38.0625V11.8125C38.0625 11.4644 37.9242 11.1306 37.6781 10.8844C37.4319 10.6383 37.0981 10.5 36.75 10.5H30.1875V6.5625C30.1875 6.2144 30.0492 5.88056 29.8031 5.63442C29.5569 5.38828 29.2231 5.25 28.875 5.25H13.125C12.7769 5.25 12.4431 5.38828 12.1969 5.63442C11.9508 5.88056 11.8125 6.2144 11.8125 6.5625V15.75H5.25C4.9019 15.75 4.56806 15.8883 4.32192 16.1344C4.07578 16.3806 3.9375 16.7144 3.9375 17.0625V34.125H2.625C2.2769 34.125 1.94306 34.2633 1.69692 34.5094C1.45078 34.7556 1.3125 35.0894 1.3125 35.4375C1.3125 35.7856 1.45078 36.1194 1.69692 36.3656C1.94306 36.6117 2.2769 36.75 2.625 36.75H39.375C39.7231 36.75 40.0569 36.6117 40.3031 36.3656C40.5492 36.1194 40.6875 35.7856 40.6875 35.4375C40.6875 35.0894 40.5492 34.7556 40.3031 34.5094C40.0569 34.2633 39.7231 34.125 39.375 34.125ZM6.5625 18.375H13.125C13.4731 18.375 13.8069 18.2367 14.0531 17.9906C14.2992 17.7444 14.4375 17.4106 14.4375 17.0625V7.875H27.5625V11.8125C27.5625 12.1606 27.7008 12.4944 27.9469 12.7406C28.1931 12.9867 28.5269 13.125 28.875 13.125H35.4375V34.125H24.9375V27.5625C24.9375 27.2144 24.7992 26.8806 24.5531 26.6344C24.3069 26.3883 23.9731 26.25 23.625 26.25H18.375C18.0269 26.25 17.6931 26.3883 17.4469 26.6344C17.2008 26.8806 17.0625 27.2144 17.0625 27.5625V34.125H6.5625V18.375ZM22.3125 34.125H19.6875V28.875H22.3125V34.125ZM18.375 11.8125C18.375 11.4644 18.5133 11.1306 18.7594 10.8844C19.0056 10.6383 19.3394 10.5 19.6875 10.5H22.3125C22.6606 10.5 22.9944 10.6383 23.2406 10.8844C23.4867 11.1306 23.625 11.4644 23.625 11.8125C23.625 12.1606 23.4867 12.4944 23.2406 12.7406C22.9944 12.9867 22.6606 13.125 22.3125 13.125H19.6875C19.3394 13.125 19.0056 12.9867 18.7594 12.7406C18.5133 12.4944 18.375 12.1606 18.375 11.8125ZM18.375 17.0625C18.375 16.7144 18.5133 16.3806 18.7594 16.1344C19.0056 15.8883 19.3394 15.75 19.6875 15.75H22.3125C22.6606 15.75 22.9944 15.8883 23.2406 16.1344C23.4867 16.3806 23.625 16.7144 23.625 17.0625C23.625 17.4106 23.4867 17.7444 23.2406 17.9906C22.9944 18.2367 22.6606 18.375 22.3125 18.375H19.6875C19.3394 18.375 19.0056 18.2367 18.7594 17.9906C18.5133 17.7444 18.375 17.4106 18.375 17.0625ZM27.5625 17.0625C27.5625 16.7144 27.7008 16.3806 27.9469 16.1344C28.1931 15.8883 28.5269 15.75 28.875 15.75H31.5C31.8481 15.75 32.1819 15.8883 32.4281 16.1344C32.6742 16.3806 32.8125 16.7144 32.8125 17.0625C32.8125 17.4106 32.6742 17.7444 32.4281 17.9906C32.1819 18.2367 31.8481 18.375 31.5 18.375H28.875C28.5269 18.375 28.1931 18.2367 27.9469 17.9906C27.7008 17.7444 27.5625 17.4106 27.5625 17.0625ZM14.4375 22.3125C14.4375 22.6606 14.2992 22.9944 14.0531 23.2406C13.8069 23.4867 13.4731 23.625 13.125 23.625H10.5C10.1519 23.625 9.81806 23.4867 9.57192 23.2406C9.32578 22.9944 9.1875 22.6606 9.1875 22.3125C9.1875 21.9644 9.32578 21.6306 9.57192 21.3844C9.81806 21.1383 10.1519 21 10.5 21H13.125C13.4731 21 13.8069 21.1383 14.0531 21.3844C14.2992 21.6306 14.4375 21.9644 14.4375 22.3125ZM14.4375 27.5625C14.4375 27.9106 14.2992 28.2444 14.0531 28.4906C13.8069 28.7367 13.4731 28.875 13.125 28.875H10.5C10.1519 28.875 9.81806 28.7367 9.57192 28.4906C9.32578 28.2444 9.1875 27.9106 9.1875 27.5625C9.1875 27.2144 9.32578 26.8806 9.57192 26.6344C9.81806 26.3883 10.1519 26.25 10.5 26.25H13.125C13.4731 26.25 13.8069 26.3883 14.0531 26.6344C14.2992 26.8806 14.4375 27.2144 14.4375 27.5625ZM18.375 22.3125C18.375 21.9644 18.5133 21.6306 18.7594 21.3844C19.0056 21.1383 19.3394 21 19.6875 21H22.3125C22.6606 21 22.9944 21.1383 23.2406 21.3844C23.4867 21.6306 23.625 21.9644 23.625 22.3125C23.625 22.6606 23.4867 22.9944 23.2406 23.2406C22.9944 23.4867 22.6606 23.625 22.3125 23.625H19.6875C19.3394 23.625 19.0056 23.4867 18.7594 23.2406C18.5133 22.9944 18.375 22.6606 18.375 22.3125ZM27.5625 22.3125C27.5625 21.9644 27.7008 21.6306 27.9469 21.3844C28.1931 21.1383 28.5269 21 28.875 21H31.5C31.8481 21 32.1819 21.1383 32.4281 21.3844C32.6742 21.6306 32.8125 21.9644 32.8125 22.3125C32.8125 22.6606 32.6742 22.9944 32.4281 23.2406C32.1819 23.4867 31.8481 23.625 31.5 23.625H28.875C28.5269 23.625 28.1931 23.4867 27.9469 23.2406C27.7008 22.9944 27.5625 22.6606 27.5625 22.3125ZM27.5625 27.5625C27.5625 27.2144 27.7008 26.8806 27.9469 26.6344C28.1931 26.3883 28.5269 26.25 28.875 26.25H31.5C31.8481 26.25 32.1819 26.3883 32.4281 26.6344C32.6742 26.8806 32.8125 27.2144 32.8125 27.5625C32.8125 27.9106 32.6742 28.2444 32.4281 28.4906C32.1819 28.7367 31.8481 28.875 31.5 28.875H28.875C28.5269 28.875 28.1931 28.7367 27.9469 28.4906C27.7008 28.2444 27.5625 27.9106 27.5625 27.5625Z" fill="#00A3A5"/>
</svg>
