<svg width="42" height="42" viewBox="0 0 42 42" fill="none" xmlns="http://www.w3.org/2000/svg">
<path opacity="0.2" d="M34.125 14.4375V22.3125C34.1256 25.0763 33.3328 27.7823 31.8409 30.1088C30.349 32.4354 28.2206 34.2849 25.7086 35.4375H13.6664C11.1544 34.2849 9.02603 32.4354 7.53411 30.1088C6.04219 27.7823 5.24943 25.0763 5.25 22.3125V14.4375H34.125Z" fill="#00A3A5"/>
<path d="M13.125 9.1875V3.9375C13.125 3.5894 13.2633 3.25556 13.5094 3.00942C13.7556 2.76328 14.0894 2.625 14.4375 2.625C14.7856 2.625 15.1194 2.76328 15.3656 3.00942C15.6117 3.25556 15.75 3.5894 15.75 3.9375V9.1875C15.75 9.5356 15.6117 9.86944 15.3656 10.1156C15.1194 10.3617 14.7856 10.5 14.4375 10.5C14.0894 10.5 13.7556 10.3617 13.5094 10.1156C13.2633 9.86944 13.125 9.5356 13.125 9.1875ZM19.6875 10.5C20.0356 10.5 20.3694 10.3617 20.6156 10.1156C20.8617 9.86944 21 9.5356 21 9.1875V3.9375C21 3.5894 20.8617 3.25556 20.6156 3.00942C20.3694 2.76328 20.0356 2.625 19.6875 2.625C19.3394 2.625 19.0056 2.76328 18.7594 3.00942C18.5133 3.25556 18.375 3.5894 18.375 3.9375V9.1875C18.375 9.5356 18.5133 9.86944 18.7594 10.1156C19.0056 10.3617 19.3394 10.5 19.6875 10.5ZM24.9375 10.5C25.2856 10.5 25.6194 10.3617 25.8656 10.1156C26.1117 9.86944 26.25 9.5356 26.25 9.1875V3.9375C26.25 3.5894 26.1117 3.25556 25.8656 3.00942C25.6194 2.76328 25.2856 2.625 24.9375 2.625C24.5894 2.625 24.2556 2.76328 24.0094 3.00942C23.7633 3.25556 23.625 3.5894 23.625 3.9375V9.1875C23.625 9.5356 23.7633 9.86944 24.0094 10.1156C24.2556 10.3617 24.5894 10.5 24.9375 10.5ZM40.6875 19.6875V21C40.687 22.6694 40.0503 24.2759 38.9069 25.4923C37.7636 26.7088 36.1997 27.4438 34.5335 27.5477C33.6382 30.0801 32.1139 32.3434 30.1038 34.125H34.125C34.4731 34.125 34.8069 34.2633 35.0531 34.5094C35.2992 34.7556 35.4375 35.0894 35.4375 35.4375C35.4375 35.7856 35.2992 36.1194 35.0531 36.3656C34.8069 36.6117 34.4731 36.75 34.125 36.75H5.25C4.9019 36.75 4.56806 36.6117 4.32192 36.3656C4.07578 36.1194 3.9375 35.7856 3.9375 35.4375C3.9375 35.0894 4.07578 34.7556 4.32192 34.5094C4.56806 34.2633 4.9019 34.125 5.25 34.125H9.27609C7.60151 32.6455 6.2598 30.8277 5.33954 28.7915C4.41929 26.7553 3.94142 24.547 3.9375 22.3125V14.4375C3.9375 14.0894 4.07578 13.7556 4.32192 13.5094C4.56806 13.2633 4.9019 13.125 5.25 13.125H34.125C35.8655 13.125 37.5347 13.8164 38.7654 15.0471C39.9961 16.2778 40.6875 17.947 40.6875 19.6875ZM32.8125 15.75H6.5625V22.3125C6.56756 24.7768 7.26399 27.1903 8.57259 29.2785C9.8812 31.3667 11.7495 33.0459 13.965 34.125H25.41C27.6255 33.0459 29.4938 31.3667 30.8024 29.2785C32.111 27.1903 32.8074 24.7768 32.8125 22.3125V15.75ZM38.0625 19.6875C38.0622 18.8735 37.8097 18.0795 37.3396 17.4149C36.8695 16.7503 36.205 16.2478 35.4375 15.9764V22.3125C35.4365 23.1367 35.3707 23.9596 35.2406 24.7734C36.055 24.5328 36.7697 24.0354 37.2783 23.3554C37.7868 22.6754 38.0619 21.8492 38.0625 21V19.6875Z" fill="#00A3A5"/>
</svg>
