<svg width="42" height="42" viewBox="0 0 42 42" fill="none" xmlns="http://www.w3.org/2000/svg">
<path opacity="0.2" d="M9.66161 25.4116L16.5883 32.3384L8.28185 35.3571C8.05284 35.4413 7.8045 35.4582 7.56619 35.4058C7.32788 35.3534 7.10955 35.2339 6.93701 35.0613C6.76448 34.8888 6.64493 34.6705 6.59252 34.4321C6.5401 34.1938 6.557 33.9455 6.64122 33.7165L9.66161 25.4116ZM32.4368 24.6373L17.3627 9.56321C17.2107 9.41122 17.0228 9.30003 16.8164 9.23993C16.61 9.17983 16.3918 9.17276 16.1819 9.21938C15.9721 9.26599 15.7774 9.36478 15.6158 9.50662C15.4543 9.64845 15.3312 9.82873 15.2578 10.0308L12.8133 16.7573L25.2525 29.1966L31.979 26.752C32.1822 26.6783 32.3634 26.5542 32.5055 26.3914C32.6477 26.2286 32.7463 26.0323 32.792 25.8211C32.8377 25.6098 32.8291 25.3904 32.767 25.1834C32.7049 24.9763 32.5913 24.7885 32.4368 24.6373Z" fill="#00A3A5"/>
<path d="M18.2913 8.63461C17.9831 8.32715 17.6023 8.1023 17.1842 7.98078C16.7662 7.85927 16.3242 7.84502 15.8992 7.93935C15.4741 8.03367 15.0797 8.23354 14.7523 8.52049C14.4248 8.80745 14.175 9.17226 14.0257 9.58125L5.41406 33.2686C5.2726 33.6592 5.2269 34.0781 5.28081 34.49C5.33472 34.9019 5.48667 35.2949 5.7239 35.636C5.96112 35.977 6.27671 36.2562 6.64416 36.45C7.0116 36.6439 7.42019 36.7467 7.83563 36.75C8.1415 36.7479 8.44465 36.6924 8.73141 36.5859L32.4171 27.9727C32.8262 27.8236 33.1912 27.5738 33.4783 27.2465C33.7655 26.9191 33.9655 26.5247 34.06 26.0997C34.1545 25.6746 34.1404 25.2326 34.019 24.8144C33.8976 24.3963 33.6728 24.0154 33.3654 23.707L18.2913 8.63461ZM16.9247 30.8175L11.1825 25.0753L13.3416 19.1346L22.8654 28.6584L16.9247 30.8175ZM7.90125 34.0988L10.1981 27.7971L14.2095 31.8084L7.90125 34.0988ZM25.5938 27.6675L14.3325 16.4062L16.4653 10.5213L31.4655 25.5216L25.5938 27.6675ZM26.25 11.8125C26.2747 10.9252 26.4895 10.0535 26.88 9.25641C27.7495 7.51898 29.3902 6.5625 31.5 6.5625C32.5992 6.5625 33.3047 6.1868 33.7395 5.37961C33.9684 4.92802 34.0997 4.43332 34.125 3.92766C34.1263 3.57956 34.2658 3.24624 34.5129 3.00102C34.76 2.7558 35.0943 2.61877 35.4424 2.62008C35.7905 2.62138 36.1238 2.76092 36.3691 3.00798C36.6143 3.25505 36.7513 3.5894 36.75 3.9375C36.75 6.04734 35.3522 9.1875 31.5 9.1875C30.4008 9.1875 29.6953 9.5632 29.2605 10.3704C29.0316 10.822 28.9003 11.3167 28.875 11.8223C28.8744 11.9947 28.8398 12.1652 28.7732 12.3242C28.7067 12.4832 28.6094 12.6276 28.4871 12.749C28.3648 12.8704 28.2197 12.9665 28.0602 13.0319C27.9007 13.0973 27.7299 13.1306 27.5576 13.1299C27.3852 13.1293 27.2147 13.0947 27.0557 13.0281C26.8967 12.9616 26.7524 12.8644 26.6309 12.742C26.5095 12.6197 26.4134 12.4746 26.348 12.3151C26.2827 12.1557 26.2494 11.9849 26.25 11.8125ZM22.3125 6.5625V2.625C22.3125 2.2769 22.4508 1.94306 22.6969 1.69692C22.9431 1.45078 23.2769 1.3125 23.625 1.3125C23.9731 1.3125 24.3069 1.45078 24.5531 1.69692C24.7992 1.94306 24.9375 2.2769 24.9375 2.625V6.5625C24.9375 6.9106 24.7992 7.24444 24.5531 7.49058C24.3069 7.73672 23.9731 7.875 23.625 7.875C23.2769 7.875 22.9431 7.73672 22.6969 7.49058C22.4508 7.24444 22.3125 6.9106 22.3125 6.5625ZM38.9911 20.0714C39.1129 20.1933 39.2096 20.3381 39.2755 20.4974C39.3413 20.6567 39.3752 20.8274 39.3751 20.9998C39.3751 21.1721 39.341 21.3428 39.275 21.502C39.209 21.6613 39.1122 21.8059 38.9903 21.9278C38.8683 22.0496 38.7236 22.1462 38.5643 22.2121C38.405 22.278 38.2343 22.3119 38.0619 22.3118C37.8895 22.3118 37.7189 22.2777 37.5596 22.2117C37.4004 22.1457 37.2557 22.0489 37.1339 21.927L34.5089 19.302C34.2626 19.0557 34.1243 18.7216 34.1243 18.3734C34.1243 18.0251 34.2626 17.691 34.5089 17.4448C34.7552 17.1985 35.0892 17.0601 35.4375 17.0601C35.7858 17.0601 36.1198 17.1985 36.3661 17.4448L38.9911 20.0714ZM39.7901 13.0577L35.8526 14.3702C35.5223 14.4803 35.1619 14.4547 34.8505 14.299C34.5391 14.1433 34.3023 13.8703 34.1923 13.5401C34.0822 13.2098 34.1078 12.8494 34.2635 12.538C34.4192 12.2266 34.6922 11.9899 35.0224 11.8798L38.9599 10.5673C39.2902 10.4572 39.6506 10.4828 39.962 10.6385C40.2734 10.7942 40.5101 11.0672 40.6202 11.3974C40.7303 11.7277 40.7047 12.0881 40.549 12.3995C40.3933 12.7109 40.1203 12.9476 39.7901 13.0577Z" fill="#00A3A5"/>
</svg>
