<svg width="42" height="42" viewBox="0 0 42 42" fill="none" xmlns="http://www.w3.org/2000/svg">
<path opacity="0.2" d="M36.75 10.5L34.755 21.4692C34.6451 22.0741 34.3264 22.6212 33.8545 23.0151C33.3826 23.4091 32.7874 23.6249 32.1727 23.625H11.5746L9.1875 10.5H36.75Z" fill="#00A3A5"/>
<path d="M37.7573 9.65836C37.6341 9.51093 37.4801 9.39234 37.306 9.31098C37.1319 9.22962 36.9421 9.18747 36.75 9.1875H10.2834L9.28594 3.70289C9.23099 3.40047 9.07166 3.12692 8.8357 2.92994C8.59974 2.73296 8.30214 2.62504 7.99477 2.625H3.9375C3.5894 2.625 3.25556 2.76328 3.00942 3.00942C2.76328 3.25556 2.625 3.5894 2.625 3.9375C2.625 4.2856 2.76328 4.61944 3.00942 4.86558C3.25556 5.11172 3.5894 5.25 3.9375 5.25H6.89062L11.0841 28.2663C11.2076 28.9489 11.5092 29.5868 11.9585 30.1153C11.3384 30.6945 10.8909 31.4341 10.6655 32.2521C10.4401 33.0701 10.4456 33.9345 10.6815 34.7496C10.9174 35.5646 11.3744 36.2984 12.0019 36.8695C12.6293 37.4407 13.4027 37.8269 14.2363 37.9854C15.0699 38.1438 15.931 38.0683 16.7243 37.7672C17.5176 37.4661 18.2119 36.9512 18.7304 36.2796C19.2489 35.6079 19.5713 34.8058 19.6617 33.9622C19.7522 33.1185 19.6072 32.2663 19.2429 31.5H26.6946C26.401 32.1147 26.249 32.7875 26.25 33.4688C26.25 34.3773 26.5194 35.2655 27.0242 36.0209C27.529 36.7763 28.2464 37.3651 29.0858 37.7128C29.9252 38.0605 30.8488 38.1515 31.7399 37.9742C32.631 37.797 33.4496 37.3595 34.092 36.717C34.7345 36.0746 35.172 35.256 35.3492 34.3649C35.5265 33.4738 35.4355 32.5502 35.0878 31.7108C34.7401 30.8714 34.1513 30.154 33.3959 29.6492C32.6405 29.1444 31.7523 28.875 30.8438 28.875H14.9576C14.6502 28.875 14.3526 28.767 14.1166 28.5701C13.8807 28.3731 13.7213 28.0995 13.6664 27.7971L13.1463 24.9375H32.1776C33.0997 24.9374 33.9925 24.6136 34.7004 24.0227C35.4082 23.4317 35.8863 22.6111 36.0511 21.7038L38.0461 10.7346C38.0799 10.545 38.0715 10.3503 38.0216 10.1643C37.9717 9.97832 37.8815 9.80558 37.7573 9.65836ZM17.0625 33.4688C17.0625 33.8581 16.947 34.2388 16.7307 34.5625C16.5144 34.8863 16.2069 35.1386 15.8472 35.2876C15.4874 35.4366 15.0916 35.4756 14.7097 35.3997C14.3278 35.3237 13.977 35.1362 13.7016 34.8609C13.4263 34.5855 13.2388 34.2347 13.1628 33.8528C13.0869 33.4709 13.1259 33.0751 13.2749 32.7153C13.4239 32.3556 13.6762 32.0481 14 31.8318C14.3237 31.6155 14.7044 31.5 15.0938 31.5C15.6159 31.5 16.1167 31.7074 16.4859 32.0766C16.8551 32.4458 17.0625 32.9466 17.0625 33.4688ZM32.8125 33.4688C32.8125 33.8581 32.697 34.2388 32.4807 34.5625C32.2644 34.8863 31.9569 35.1386 31.5972 35.2876C31.2374 35.4366 30.8416 35.4756 30.4597 35.3997C30.0778 35.3237 29.727 35.1362 29.4516 34.8609C29.1763 34.5855 28.9888 34.2347 28.9128 33.8528C28.8369 33.4709 28.8759 33.0751 29.0249 32.7153C29.1739 32.3556 29.4262 32.0481 29.75 31.8318C30.0737 31.6155 30.4544 31.5 30.8438 31.5C31.3659 31.5 31.8667 31.7074 32.2359 32.0766C32.6051 32.4458 32.8125 32.9466 32.8125 33.4688ZM33.4688 21.2346C33.4137 21.5379 33.2536 21.8121 33.0166 22.0091C32.7796 22.2062 32.4809 22.3136 32.1727 22.3125H12.6689L10.7609 11.8125H35.1766L33.4688 21.2346Z" fill="#00A3A5"/>
</svg>
