<svg width="28" height="27" viewBox="0 0 28 27" fill="none" xmlns="http://www.w3.org/2000/svg">
<path d="M2.94739 11.7413C2.94739 9.32625 4.90521 7.36843 7.32031 7.36843V7.36843C8.02003 7.36843 8.65242 6.95143 8.92805 6.30829L9.27033 5.50964C9.79282 4.29048 10.9916 3.50001 12.318 3.50001H14H15.682C17.0084 3.50001 18.2072 4.29048 18.7297 5.50964L19.072 6.30829C19.3476 6.95143 19.98 7.36843 20.6797 7.36843V7.36843C23.0948 7.36843 25.0526 9.32625 25.0526 11.7413V17.3158C25.0526 20.3679 22.5784 22.8421 19.5263 22.8421H8.4737C5.4216 22.8421 2.94739 20.3679 2.94739 17.3158V11.7413Z" stroke="white" stroke-width="1.65789"/>
<circle cx="3.31579" cy="3.31579" r="3.31579" transform="matrix(-1 0 0 1 17.3158 10.6842)" stroke="white" stroke-width="1.65789"/>
</svg>
