<svg width="28" height="28" viewBox="0 0 28 28" fill="none" xmlns="http://www.w3.org/2000/svg">
<path d="M19.5878 3.42358L19.5879 2.56768H19.5878V3.42358ZM19.5878 21.6824V22.5383H19.5879L19.5878 21.6824ZM4.32416 24.7644L4.85883 25.4328L4.85892 25.4327L4.32416 24.7644ZM7.55048 22.1827L7.01572 21.5144L7.55048 22.1827ZM19.5878 3.42358L19.5878 4.27948C22.2664 4.27956 24.438 6.45108 24.438 9.12964H25.2939H26.1498C26.1498 5.50563 23.2118 2.56779 19.5879 2.56768L19.5878 3.42358ZM25.2939 9.12964H24.438V15.9763H25.2939H26.1498V9.12964H25.2939ZM25.2939 15.9763H24.438C24.438 18.6549 22.2664 20.8264 19.5878 20.8265L19.5878 21.6824L19.5879 22.5383C23.2118 22.5382 26.1498 19.6003 26.1498 15.9763H25.2939ZM19.5878 21.6824V20.8265H8.9765V21.6824V22.5383H19.5878V21.6824ZM7.55048 22.1827L7.01572 21.5144L3.7894 24.0961L4.32416 24.7644L4.85892 25.4327L8.08524 22.851L7.55048 22.1827ZM4.32416 24.7644L3.78948 24.0961C3.603 24.2452 3.32557 24.1124 3.32557 23.8728H2.46967H1.61377C1.61377 25.547 3.55088 26.4791 4.85883 25.4328L4.32416 24.7644ZM2.46967 23.8728H3.32557V9.12964H2.46967H1.61377V23.8728H2.46967ZM2.46967 9.12964H3.32557C3.32557 6.451 5.49708 4.27948 8.17572 4.27948V3.42358V2.56768C4.55168 2.56768 1.61377 5.5056 1.61377 9.12964H2.46967ZM8.17572 3.42358V4.27948H19.5878V3.42358V2.56768H8.17572V3.42358ZM8.9765 21.6824V20.8265C8.26375 20.8265 7.57223 21.0691 7.01572 21.5144L7.55048 22.1827L8.08524 22.851C8.3382 22.6486 8.65252 22.5383 8.9765 22.5383V21.6824Z" fill="#ABABAB"/>
<circle cx="8.23271" cy="12.61" r="1.4265" fill="#ABABAB"/>
<circle cx="13.9387" cy="12.61" r="1.4265" fill="#ABABAB"/>
<circle cx="19.6447" cy="12.61" r="1.4265" fill="#ABABAB"/>
</svg>
