<svg width="28" height="28" viewBox="0 0 28 28" fill="none" xmlns="http://www.w3.org/2000/svg">
<path d="M19.5878 3.42383L19.5879 2.56793H19.5878V3.42383ZM19.5878 21.6826L19.5878 22.5385L19.5879 22.5385L19.5878 21.6826ZM4.32416 24.7646L4.85883 25.433L4.85892 25.4329L4.32416 24.7646ZM7.55048 22.1829L7.01572 21.5147L7.55048 22.1829ZM19.5878 3.42383L19.5878 4.27973C22.2664 4.27981 24.438 6.45133 24.438 9.12988H25.2939H26.1498C26.1498 5.50588 23.2118 2.56803 19.5879 2.56793L19.5878 3.42383ZM25.2939 9.12988H24.438V15.9766H25.2939H26.1498V9.12988H25.2939ZM25.2939 15.9766H24.438C24.438 18.6551 22.2664 20.8266 19.5878 20.8267L19.5878 21.6826L19.5879 22.5385C23.2118 22.5384 26.1498 19.6006 26.1498 15.9766H25.2939ZM19.5878 21.6826V20.8267H8.9765V21.6826V22.5385H19.5878V21.6826ZM7.55048 22.1829L7.01572 21.5147L3.7894 24.0964L4.32416 24.7646L4.85892 25.4329L8.08524 22.8512L7.55048 22.1829ZM4.32416 24.7646L3.78948 24.0963C3.603 24.2455 3.32557 24.1127 3.32557 23.873H2.46967H1.61377C1.61377 25.5472 3.55088 26.4794 4.85883 25.433L4.32416 24.7646ZM2.46967 23.873H3.32557V9.12988H2.46967H1.61377V23.873H2.46967ZM2.46967 9.12988H3.32557C3.32557 6.45125 5.49708 4.27973 8.17572 4.27973V3.42383V2.56793C4.55168 2.56793 1.61377 5.50585 1.61377 9.12988H2.46967ZM8.17572 3.42383V4.27973H19.5878V3.42383V2.56793H8.17572V3.42383ZM8.9765 21.6826V20.8267C8.26375 20.8267 7.57223 21.0693 7.01572 21.5147L7.55048 22.1829L8.08524 22.8512C8.3382 22.6488 8.65252 22.5385 8.9765 22.5385V21.6826Z" fill="#FF8A2B"/>
<circle cx="8.23271" cy="12.6101" r="1.4265" fill="#FF8A2B"/>
<circle cx="13.9387" cy="12.6101" r="1.4265" fill="#FF8A2B"/>
<circle cx="19.6447" cy="12.6101" r="1.4265" fill="#FF8A2B"/>
</svg>
