<svg width="24" height="24" viewBox="0 0 24 24" fill="none" xmlns="http://www.w3.org/2000/svg">
<path d="M17.9999 3.24932C20.6231 3.24935 22.7492 5.37558 22.7494 7.99881L22.75 9.22175C22.75 9.78732 22.3555 10.1968 21.929 10.3439C21.2418 10.5808 20.7503 11.2336 20.7503 11.9991C20.7503 12.7646 21.2418 13.4173 21.929 13.6543C22.3555 13.8014 22.75 14.2109 22.75 14.7764V15.9986C22.75 18.622 20.6232 20.7488 17.9999 20.7488H5.99977C3.37644 20.7488 1.24958 18.622 1.24958 15.9986V14.7764C1.24958 14.2109 1.64415 13.8014 2.07063 13.6543C2.75785 13.4173 3.24935 12.7646 3.24937 11.9991C3.24937 11.2336 2.75787 10.5808 2.07063 10.3439C1.64413 10.1968 1.24958 9.78732 1.24958 9.22175L1.25027 7.99881C1.25039 5.37558 3.37651 3.24935 5.99977 3.24932H17.9999ZM14.7689 9.23004C14.476 8.93714 14.0011 8.93714 13.7082 9.23004L9.23078 13.7075C8.93788 14.0004 8.93788 14.4752 9.23078 14.7681C9.52368 15.0609 9.99857 15.061 10.2914 14.7681L14.7689 10.2907C15.0617 9.99783 15.0617 9.52294 14.7689 9.23004ZM10.3577 9.23832C10.0486 8.92924 9.5475 8.92862 9.23837 9.23763C8.92926 9.54675 8.92926 10.0486 9.23837 10.3577C9.5475 10.6667 10.0487 10.6661 10.3577 10.357C10.6667 10.0479 10.6667 9.54741 10.3577 9.23832ZM14.7606 13.6412C14.4515 13.3321 13.9503 13.3315 13.6412 13.6405C13.3321 13.9496 13.3321 14.4514 13.6412 14.7605C13.9503 15.0695 14.4515 15.0689 14.7606 14.7598C15.0695 14.4508 15.0695 13.9503 14.7606 13.6412Z" fill="white"/>
</svg>
