<svg width="42" height="42" viewBox="0 0 42 42" fill="none" xmlns="http://www.w3.org/2000/svg">
<path opacity="0.2" d="M34.125 6.5625V27.5625H24.9375C24.9375 27.5625 24.9375 10.5 34.125 6.5625Z" fill="#00A3A5"/>
<path d="M11.8125 14.4375V6.56249C11.8125 6.2144 11.9508 5.88056 12.1969 5.63442C12.4431 5.38827 12.7769 5.24999 13.125 5.24999C13.4731 5.24999 13.8069 5.38827 14.0531 5.63442C14.2992 5.88056 14.4375 6.2144 14.4375 6.56249V14.4375C14.4375 14.7856 14.2992 15.1194 14.0531 15.3656C13.8069 15.6117 13.4731 15.75 13.125 15.75C12.7769 15.75 12.4431 15.6117 12.1969 15.3656C11.9508 15.1194 11.8125 14.7856 11.8125 14.4375ZM35.4375 6.56249V36.75C35.4375 37.0981 35.2992 37.4319 35.0531 37.6781C34.8069 37.9242 34.4731 38.0625 34.125 38.0625C33.7769 38.0625 33.4431 37.9242 33.1969 37.6781C32.9508 37.4319 32.8125 37.0981 32.8125 36.75V28.875H24.9375C24.5894 28.875 24.2556 28.7367 24.0094 28.4906C23.7633 28.2444 23.625 27.9106 23.625 27.5625C23.686 24.4185 24.0831 21.2901 24.8095 18.2306C26.4141 11.5877 29.4558 7.13507 33.6082 5.35663C33.8078 5.27114 34.0255 5.2365 34.2417 5.25581C34.458 5.27512 34.6661 5.34778 34.8474 5.46728C35.0287 5.58677 35.1775 5.74938 35.2805 5.94052C35.3834 6.13166 35.4374 6.34537 35.4375 6.56249ZM32.8125 8.84296C27.5346 12.874 26.501 22.6931 26.2992 26.25H32.8125V8.84296ZM19.6695 6.34757C19.6438 6.17523 19.584 6.00973 19.4937 5.86073C19.4033 5.71174 19.2842 5.58221 19.1433 5.47973C19.0024 5.37724 18.8425 5.30384 18.6729 5.26381C18.5033 5.22378 18.3274 5.21791 18.1556 5.24656C17.9837 5.2752 17.8192 5.33779 17.6718 5.43066C17.5244 5.52353 17.3969 5.64482 17.2968 5.78747C17.1968 5.93012 17.1261 6.09127 17.089 6.26152C17.0518 6.43176 17.049 6.60769 17.0806 6.77906L18.375 14.5409C18.375 15.9332 17.8219 17.2686 16.8373 18.2532C15.8528 19.2377 14.5174 19.7909 13.125 19.7909C11.7326 19.7909 10.3973 19.2377 9.4127 18.2532C8.42814 17.2686 7.87501 15.9332 7.87501 14.5409L9.16783 6.77906C9.1994 6.60769 9.19654 6.43176 9.15941 6.26152C9.12228 6.09127 9.05162 5.93012 8.95156 5.78747C8.8515 5.64482 8.72403 5.52353 8.57659 5.43066C8.42916 5.33779 8.26471 5.2752 8.09283 5.24656C7.92096 5.21791 7.7451 5.22378 7.57551 5.26381C7.40593 5.30384 7.24601 5.37724 7.10509 5.47973C6.96417 5.58221 6.84507 5.71174 6.75473 5.86073C6.66439 6.00973 6.60462 6.17523 6.57892 6.34757L5.26642 14.2226C5.25519 14.2937 5.2497 14.3655 5.25001 14.4375C5.25263 16.2977 5.91269 18.097 7.11355 19.5176C8.3144 20.9382 9.97875 21.8887 11.8125 22.2009V36.75C11.8125 37.0981 11.9508 37.4319 12.1969 37.6781C12.4431 37.9242 12.7769 38.0625 13.125 38.0625C13.4731 38.0625 13.8069 37.9242 14.0531 37.6781C14.2992 37.4319 14.4375 37.0981 14.4375 36.75V22.2009C16.2713 21.8887 17.9356 20.9382 19.1365 19.5176C20.3373 18.097 20.9974 16.2977 21 14.4375C20.9998 14.3655 20.9937 14.2936 20.982 14.2226L19.6695 6.34757Z" fill="#00A3A5"/>
</svg>
