<svg width="42" height="42" viewBox="0 0 42 42" fill="none" xmlns="http://www.w3.org/2000/svg">
<path opacity="0.2" d="M34.125 19.7498V30.1875C34.125 31.5799 33.5719 32.9152 32.5873 33.8998C31.6027 34.8844 30.2674 35.4375 28.875 35.4375H13.125C11.7326 35.4375 10.3973 34.8844 9.41269 33.8998C8.42812 32.9152 7.875 31.5799 7.875 30.1875V19.7498L17.0625 7.875H24.9375L34.125 19.7498Z" fill="#00A3A5"/>
<path d="M39.3274 20.5078L36.6335 6.07032C36.5677 5.7184 36.4305 5.38366 36.2306 5.0867C36.0306 4.78973 35.772 4.53682 35.4706 4.3435C35.1693 4.15018 34.8316 4.02056 34.4783 3.96259C34.125 3.90462 33.7635 3.91953 33.4162 4.00641L33.3654 4.02118L24.7488 6.56251H17.2511L8.63458 4.02938L8.58372 4.01462C8.2364 3.92773 7.87498 3.91282 7.52168 3.97079C7.16838 4.02876 6.83067 4.15839 6.52933 4.3517C6.22798 4.54502 5.96936 4.79794 5.76938 5.0949C5.5694 5.39187 5.43228 5.7266 5.36645 6.07852L2.67255 20.5078C2.55735 21.0857 2.64286 21.6856 2.91494 22.2083C3.18702 22.7309 3.62936 23.1451 4.1688 23.3822C4.51427 23.5406 4.8896 23.6234 5.26966 23.625C5.72456 23.6248 6.17105 23.5024 6.56247 23.2706V30.1875C6.56247 31.928 7.25387 33.5972 8.48458 34.8279C9.71529 36.0586 11.3845 36.75 13.125 36.75H28.875C30.6155 36.75 32.2847 36.0586 33.5154 34.8279C34.7461 33.5972 35.4375 31.928 35.4375 30.1875V23.2723C35.8285 23.5036 36.2743 23.626 36.7286 23.6266C37.1091 23.6255 37.485 23.5433 37.8311 23.3855C38.3712 23.1482 38.814 22.7336 39.0862 22.2102C39.3583 21.6868 39.4434 21.0862 39.3274 20.5078ZM5.24997 21L7.94552 6.56251L14.8476 8.59196L5.24997 21ZM28.875 34.125H22.3125V32.0431L24.5536 29.8036C24.7998 29.5573 24.9382 29.2233 24.9382 28.875C24.9382 28.5267 24.7998 28.1927 24.5536 27.9464C24.3073 27.7001 23.9733 27.5618 23.625 27.5618C23.2767 27.5618 22.9427 27.7001 22.6964 27.9464L21 29.6445L19.3036 27.9464C19.0573 27.7001 18.7233 27.5618 18.375 27.5618C18.0267 27.5618 17.6927 27.7001 17.4464 27.9464C17.2001 28.1927 17.0617 28.5267 17.0617 28.875C17.0617 29.2233 17.2001 29.5573 17.4464 29.8036L19.6875 32.0431V34.125H13.125C12.0807 34.125 11.0792 33.7102 10.3407 32.9717C9.60231 32.2333 9.18747 31.2318 9.18747 30.1875V20.1977L17.7072 9.18751H24.2927L32.8125 20.1977V30.1875C32.8125 31.2318 32.3976 32.2333 31.6592 32.9717C30.9208 33.7102 29.9193 34.125 28.875 34.125ZM36.75 21L27.1523 8.59196L34.0544 6.56251L36.75 21ZM17.0625 22.9688C17.0625 23.3581 16.947 23.7388 16.7307 24.0625C16.5143 24.3863 16.2069 24.6386 15.8471 24.7876C15.4874 24.9367 15.0915 24.9756 14.7096 24.8997C14.3277 24.8237 13.9769 24.6362 13.7016 24.3609C13.4263 24.0855 13.2388 23.7347 13.1628 23.3528C13.0868 22.9709 13.1258 22.5751 13.2748 22.2154C13.4238 21.8556 13.6762 21.5481 13.9999 21.3318C14.3237 21.1155 14.7043 21 15.0937 21C15.6159 21 16.1166 21.2074 16.4858 21.5766C16.855 21.9459 17.0625 22.4466 17.0625 22.9688ZM28.875 22.9688C28.875 23.3581 28.7595 23.7388 28.5432 24.0625C28.3268 24.3863 28.0194 24.6386 27.6596 24.7876C27.2999 24.9367 26.904 24.9756 26.5221 24.8997C26.1402 24.8237 25.7894 24.6362 25.5141 24.3609C25.2388 24.0855 25.0513 23.7347 24.9753 23.3528C24.8993 22.9709 24.9383 22.5751 25.0873 22.2154C25.2363 21.8556 25.4887 21.5481 25.8124 21.3318C26.1362 21.1155 26.5168 21 26.9062 21C27.4284 21 27.9291 21.2074 28.2983 21.5766C28.6675 21.9459 28.875 22.4466 28.875 22.9688Z" fill="#00A3A5"/>
</svg>
