<svg width="18" height="18" viewBox="0 0 18 18" fill="none" xmlns="http://www.w3.org/2000/svg">
<path d="M10.5137 0.806172C11.5868 -0.268531 13.3275 -0.269567 14.4014 0.804218L16.8936 3.29641C17.958 4.36109 17.9686 6.08432 16.918 7.16262L7.68463 16.6362C6.97917 17.36 6.01134 17.7681 5.00104 17.7681H2.24908C0.970104 17.7679 -0.0515485 16.7022 0.00201401 15.4234L0.120178 12.6138C0.159791 11.6749 0.550232 10.7844 1.21393 10.1196L10.5137 0.806172ZM2.27447 11.1812C1.87633 11.58 1.64192 12.114 1.61822 12.6773L1.50006 15.4859C1.48214 15.9121 1.82287 16.2678 2.24908 16.2681H5.00201C5.60797 16.2679 6.18824 16.0225 6.61139 15.5884L13.1436 8.88527L8.85065 4.59328L2.27447 11.1812ZM13.3419 1.86574C12.8537 1.37759 12.0621 1.37819 11.5743 1.86672L9.91022 3.53176L14.1905 7.81105L15.8438 6.11574C16.3214 5.62569 16.3177 4.84195 15.834 4.35793L13.3419 1.86574Z" fill="white"/>
</svg>
