<svg width="28" height="28" viewBox="0 0 28 28" fill="none" xmlns="http://www.w3.org/2000/svg">
<path d="M2.85303 12.483C2.85303 11.086 3.49276 9.76586 4.58927 8.90019L10.8659 3.94498C12.5243 2.63569 14.8645 2.63569 16.523 3.94498L22.7996 8.90019C23.8961 9.76586 24.5358 11.086 24.5358 12.483V19.9711C24.5358 22.4922 22.4921 24.5359 19.971 24.5359H18.2592C17.629 24.5359 17.118 24.025 17.118 23.3947V19.9711C17.118 18.7106 16.0962 17.6887 14.8356 17.6887H12.5532C11.2927 17.6887 10.2708 18.7106 10.2708 19.9711V23.3947C10.2708 24.025 9.75989 24.5359 9.12963 24.5359H7.41783C4.89676 24.5359 2.85303 22.4922 2.85303 19.9711L2.85303 12.483Z" stroke="#ABABAB" stroke-width="1.7118"/>
</svg>
