<svg width="28" height="28" viewBox="0 0 28 28" fill="none" xmlns="http://www.w3.org/2000/svg">
<path d="M2.85303 12.4829C2.85303 11.0859 3.49276 9.76574 4.58927 8.90007L10.8659 3.94486C12.5243 2.63557 14.8645 2.63557 16.523 3.94486L22.7996 8.90007C23.8961 9.76574 24.5358 11.0859 24.5358 12.4829V19.971C24.5358 22.4921 22.4921 24.5358 19.971 24.5358H18.2592C17.629 24.5358 17.118 24.0249 17.118 23.3946V19.971C17.118 18.7105 16.0962 17.6886 14.8356 17.6886H12.5532C11.2927 17.6886 10.2708 18.7105 10.2708 19.971V23.3946C10.2708 24.0249 9.75989 24.5358 9.12963 24.5358H7.41783C4.89676 24.5358 2.85303 22.4921 2.85303 19.971L2.85303 12.4829Z" stroke="#FF8A2B" stroke-width="1.7118"/>
</svg>
