<svg width="121" height="121" viewBox="0 0 121 121" fill="none" xmlns="http://www.w3.org/2000/svg">
<g clip-path="url(#clip0_352_3082)">
<path d="M28.387 0.0462323C18.1226 0.737192 9.90702 9.23496 9.5158 19.5323C9.36652 23.5388 10.3754 27.2927 12.2286 30.4948L20.5471 47.5471H20.6038L26.8993 60.4588C28.073 62.8668 31.5013 62.8668 32.6749 60.4588L38.9705 47.5471H39.0271L47.3456 30.4948C49.0804 27.5041 50.0739 24.0287 50.0739 20.3161C50.0739 8.63166 40.2265 -0.747855 28.387 0.0462323ZM29.7871 29.9225C24.3718 29.9225 19.9809 25.5241 19.9809 20.0995C19.9809 14.675 24.3718 10.2766 29.7871 10.2766C35.2024 10.2766 39.5933 14.675 39.5933 20.0995C39.5933 25.5241 35.2024 29.9225 29.7871 29.9225Z" fill="#FFA65E"/>
<path d="M57.3263 1.79559C58.8252 1.7411 70.3701 1.49272 78.4601 10.9884C82.7902 16.0699 84.1587 21.6453 84.554 25.4661C99.8586 26.1646 111.612 38.8163 111.139 51.8936L111.102 52.5731C110.225 65.3546 97.6566 76.547 82.4423 76.0167H56.2096C54.0189 76.0167 52.2429 74.2408 52.2429 72.0501C52.2431 69.8595 54.019 68.0834 56.2096 68.0834H82.5031C82.5531 68.0834 82.6037 68.0848 82.6537 68.0867C94.1258 68.5205 102.635 60.0758 103.188 52.0297L103.21 51.5992C103.518 42.5334 94.0396 32.1957 81.0865 33.4725C79.9298 33.5865 78.7812 33.1878 77.9444 32.3812C77.1075 31.5745 76.6665 30.4413 76.738 29.2811C76.821 27.9338 77.0205 21.938 72.8399 16.644L72.4216 16.1338C66.8504 9.59424 58.6709 9.68505 57.6152 9.72339C55.426 9.80297 53.5866 8.09308 53.5069 5.90392C53.4273 3.71475 55.1372 1.87535 57.3263 1.79559Z" fill="#858585"/>
<path d="M104.602 43.4273C107.872 43.4273 110.522 40.7724 110.522 37.4974C110.522 34.2224 107.872 31.5675 104.602 31.5675C101.333 31.5675 98.6826 34.2224 98.6826 37.4974C98.6826 40.7724 101.333 43.4273 104.602 43.4273Z" fill="#858585"/>
<path d="M90.5493 26.3079C95.2439 27.5454 99.2436 28.7726 102.425 29.8142C105.735 30.8971 107.583 31.5983 109.055 33.4186C110.28 34.9345 110.785 36.6568 111.15 39.7403C111.526 42.9167 111.778 47.6709 110.913 53.6368" fill="#858585"/>
<path d="M64.4668 37.4C67.2834 37.4 69.5668 35.1166 69.5668 32.3C69.5668 29.4833 67.2834 27.2 64.4668 27.2C61.6501 27.2 59.3668 29.4833 59.3668 32.3C59.3668 35.1166 61.6501 37.4 64.4668 37.4Z" fill="#858585"/>
</g>
<g clip-path="url(#clip1_352_3082)">
<path d="M16.0262 113.979C17.8191 113.979 18.346 115.362 18.346 116.51C18.346 117.657 17.7888 119.007 16.0262 119.007H4.76465C0.742936 119.007 0 118.074 0 114.311V97.6559C0 93.8925 0.742936 92.9886 4.76465 92.9886H14.5403C16.3332 92.9886 16.9245 94.3722 16.9245 95.5196C16.9245 96.6671 16.3067 98.0802 14.5403 98.0802H7.02378C6.46658 98.0802 6.22019 98.261 6.22019 98.9546V113.108C6.22019 113.801 6.46658 113.982 7.02378 113.982H16.0262V113.979ZM27.3181 102.474C29.2057 102.474 29.7629 103.891 29.7629 105.094C29.7629 106.297 29.1754 107.714 27.3181 107.714H26.2037V120.21H20.0176V94.9145C20.0176 92.9554 21.4731 91.9333 23.1106 91.9333C24.7481 91.9333 26.2037 92.9554 26.2037 94.9145V102.474H27.3181Z" fill="#858585"/>
<path d="M48.1999 113.617C49.9928 113.617 50.5197 114.971 50.5197 116.115C50.5197 117.259 49.9625 118.705 48.1999 118.705H35.7026C32.0221 118.705 30.9683 117.439 30.9683 114.008V96.0583C30.9683 94.0401 32.4542 93.1361 34.1258 93.1361C35.7974 93.1361 37.1885 94.0696 37.1885 96.0583V112.772C37.1885 113.466 37.3743 113.617 38.0869 113.617H48.2037H48.1999ZM58.0703 94.9145V120.21H51.8842V110.573H46.407C44.7657 110.573 43.7157 109.61 43.7157 108.105C43.7157 106.599 44.7354 105.574 46.407 105.574H51.8842V102.142H46.407C44.7657 102.142 43.7157 101.179 43.7157 99.6741C43.7157 98.1687 44.7354 97.143 46.407 97.143H51.8842V94.9145C51.8842 92.9554 53.3398 91.9333 54.9773 91.9333C56.6148 91.9333 58.0703 92.9554 58.0703 94.9145Z" fill="#858585"/>
<path d="M63.8773 108.677C62.236 108.677 61.4628 107.802 61.4628 106.54C61.4628 105.279 62.2057 104.341 63.8773 104.341H68.2402V103.227H67.8687C64.1881 103.227 62.1147 100.999 62.1147 97.9584V97.8699C62.1147 94.8297 64.1881 92.6012 67.8687 92.6012H74.828C78.5086 92.6012 80.5213 94.8297 80.5213 97.8699V97.9584C80.5213 100.999 78.5086 103.227 74.828 103.227H74.0851V104.341H79.2515C80.9231 104.341 81.6661 105.304 81.6661 106.54C81.6661 107.776 80.8928 108.677 79.2515 108.677H63.8735H63.8773ZM90.3273 120.21H84.6947C84.8804 118.675 84.5696 117.469 83.5196 116.897C81.9125 119.247 79.3122 120.871 76.7119 120.933C75.01 120.963 73.9259 120.302 73.7098 119.277C73.6189 118.856 73.6189 118.465 73.7098 118.133C73.4331 117.259 72.9366 116.779 72.0686 116.657C70.522 118.974 67.8914 120.542 65.2912 120.572C63.684 120.601 62.5696 119.878 62.3839 118.764C62.1375 117.439 62.8463 116.384 64.2412 116.144C66.4397 115.724 67.3987 114.185 67.52 111.898C67.6451 110.09 69.0362 109.429 70.5827 109.459C72.1595 109.488 73.4597 110.304 73.4597 112.108V112.529C75.5331 112.621 77.0493 113.491 78.1296 115.358C78.7777 114.576 79.0582 113.462 79.0885 112.016C79.1189 110.178 80.6047 109.426 82.1513 109.455C83.7281 109.485 85.0282 110.3 85.0282 112.104C85.0282 112.315 85.0282 112.495 84.9979 112.706C88.5875 113.277 90.5358 115.956 90.3198 120.203L90.3273 120.21ZM67.9597 97.9547C67.9597 98.7369 68.4865 99.2202 69.5062 99.2202H73.1868C74.1761 99.2202 74.6726 98.7369 74.6726 97.9547V97.8662C74.6726 97.1135 74.1761 96.6007 73.1868 96.6007H69.5062C68.4865 96.6007 67.9597 97.1135 67.9597 97.8662V97.9547ZM89.7398 97.5046C91.6275 97.5046 92.1847 98.9214 92.1847 100.124C92.1847 101.327 91.5972 102.744 89.7398 102.744H88.7808V108.916H82.7464V94.826C82.7464 92.959 84.1375 91.9333 85.7788 91.9333C87.42 91.9333 88.7808 92.9554 88.7808 94.826V97.5046H89.7398Z" fill="#858585"/>
<path d="M105.269 107.112C107.032 107.112 107.529 105.939 107.529 104.825C107.529 103.711 107.066 102.508 105.269 102.508H99.5762C99.1744 102.508 98.9886 102.327 98.9886 101.906V98.1134C98.9886 97.6928 99.1744 97.512 99.5762 97.512H104.401C106.164 97.512 106.721 96.276 106.721 95.1618C106.721 94.0475 106.194 92.8447 104.401 92.8447H96.5438C93.8829 92.8447 93.049 93.8077 93.049 96.158V103.777C93.049 106.127 93.8829 107.12 96.5438 107.12H105.269V107.112Z" fill="#858585"/>
<path d="M113.995 102.294H115.542V107.865H120.955V94.5234C120.955 92.959 119.905 91.9333 118.263 91.9333C116.622 91.9333 115.542 92.9554 115.542 94.5234V97.5968H113.995V94.4644C113.995 92.959 113.006 91.9333 111.365 91.9333C109.723 91.9333 108.734 92.9554 108.734 94.4644V107.865H113.995V102.294Z" fill="#858585"/>
<path d="M107.191 120.218C105.595 118.314 103.768 116.48 102.195 114.569C100.046 111.957 102.374 109.079 107.032 108.791L107.074 108.78H100.706C96.1874 108.78 93.9927 111.189 93.9927 114.532C93.9927 117.875 96.1874 120.284 100.706 120.284H107.343L107.191 120.218Z" fill="#858585"/>
<path d="M114.287 108.78H107.976L108.7 108.846C112.517 109.341 114.662 111.923 113.074 114.181L107.767 120.221L107.616 120.288H114.287C118.775 120.288 121 117.908 121 114.536C121 111.163 118.771 108.784 114.287 108.784V108.78Z" fill="#858585"/>
<path d="M107.479 114.528C109.169 114.528 110.538 113.669 110.538 112.61C110.538 111.55 109.169 110.691 107.479 110.691C105.79 110.691 104.42 111.55 104.42 112.61C104.42 113.669 105.79 114.528 107.479 114.528Z" fill="#858585"/>
</g>
<defs>
<clipPath id="clip0_352_3082">
<rect width="102" height="75.9333" fill="white" transform="translate(9.5)"/>
</clipPath>
<clipPath id="clip1_352_3082">
<rect width="121" height="29" fill="white" transform="translate(0 91.9333)"/>
</clipPath>
</defs>
</svg>
