<svg width="28" height="28" viewBox="0 0 28 28" fill="none" xmlns="http://www.w3.org/2000/svg">
<mask id="path-1-inside-1_423_4472" fill="white">
<path d="M23.275 8.55898C22.6825 8.55898 22.1033 8.73468 21.6107 9.06384C21.118 9.39301 20.7341 9.86087 20.5073 10.4082C20.2806 10.9556 20.2213 11.558 20.3369 12.1391C20.4525 12.7202 20.7378 13.2539 21.1567 13.6729C21.5757 14.0918 22.1094 14.3771 22.6905 14.4927C23.2716 14.6083 23.874 14.549 24.4214 14.3223C24.9687 14.0955 25.4366 13.7116 25.7658 13.2189C26.0949 12.7263 26.2706 12.1471 26.2706 11.5546C26.2706 10.7601 25.955 9.99818 25.3932 9.43639C24.8314 8.8746 24.0695 8.55898 23.275 8.55898ZM23.275 12.8385C23.021 12.8385 22.7728 12.7632 22.5617 12.6221C22.3506 12.481 22.186 12.2805 22.0888 12.0459C21.9917 11.8113 21.9662 11.5532 22.0158 11.3042C22.0653 11.0551 22.1876 10.8264 22.3671 10.6468C22.5467 10.4673 22.7755 10.345 23.0245 10.2955C23.2735 10.2459 23.5317 10.2713 23.7663 10.3685C24.0009 10.4657 24.2014 10.6302 24.3424 10.8414C24.4835 11.0525 24.5588 11.3007 24.5588 11.5546C24.5588 11.8951 24.4236 12.2217 24.1828 12.4625C23.942 12.7032 23.6155 12.8385 23.275 12.8385ZM8.29672 11.5546C8.29672 10.9622 8.12103 10.383 7.79186 9.89034C7.4627 9.39771 6.99484 9.01375 6.44746 8.78701C5.90007 8.56028 5.29775 8.50096 4.71665 8.61655C4.13555 8.73213 3.60178 9.01744 3.18283 9.43639C2.76388 9.85534 2.47857 10.3891 2.36298 10.9702C2.24739 11.5513 2.30672 12.1536 2.53345 12.701C2.76019 13.2484 3.14415 13.7163 3.63678 14.0454C4.12941 14.3746 4.70859 14.5503 5.30107 14.5503C6.09557 14.5503 6.85752 14.2347 7.41931 13.6729C7.98111 13.1111 8.29672 12.3491 8.29672 11.5546ZM5.30107 12.8385C5.04715 12.8385 4.79893 12.7632 4.5878 12.6221C4.37667 12.481 4.21212 12.2805 4.11495 12.0459C4.01778 11.8113 3.99235 11.5532 4.04189 11.3042C4.09143 11.0551 4.2137 10.8264 4.39325 10.6468C4.5728 10.4673 4.80156 10.345 5.0506 10.2955C5.29965 10.2459 5.55779 10.2713 5.79238 10.3685C6.02697 10.4657 6.22748 10.6302 6.36855 10.8414C6.50962 11.0525 6.58492 11.3007 6.58492 11.5546C6.58492 11.8951 6.44966 12.2217 6.20889 12.4625C5.96812 12.7032 5.64157 12.8385 5.30107 12.8385ZM10.4365 9.41488C11.029 9.41488 11.6081 9.23919 12.1008 8.91003C12.5934 8.58086 12.9774 8.113 13.2041 7.56562C13.4308 7.01824 13.4901 6.41591 13.3746 5.83481C13.259 5.25371 12.9737 4.71994 12.5547 4.30099C12.1358 3.88204 11.602 3.59673 11.0209 3.48115C10.4398 3.36556 9.83747 3.42488 9.29009 3.65162C8.7427 3.87835 8.27484 4.26231 7.94568 4.75494C7.61651 5.24757 7.44082 5.82675 7.44082 6.41923C7.44082 7.21373 7.75643 7.97569 8.31823 8.53748C8.88002 9.09927 9.64197 9.41488 10.4365 9.41488ZM10.4365 5.13539C10.6904 5.13539 10.9386 5.21068 11.1497 5.35175C11.3609 5.49282 11.5254 5.69333 11.6226 5.92793C11.7198 6.16252 11.7452 6.42066 11.6957 6.6697C11.6461 6.91874 11.5238 7.1475 11.3443 7.32705C11.1647 7.5066 10.936 7.62888 10.6869 7.67842C10.4379 7.72795 10.1798 7.70253 9.94516 7.60536C9.71057 7.50819 9.51006 7.34363 9.36899 7.1325C9.22792 6.92138 9.15262 6.67316 9.15262 6.41923C9.15262 6.07874 9.28788 5.75218 9.52865 5.51142C9.76942 5.27065 10.096 5.13539 10.4365 5.13539ZM18.1396 9.41488C18.7321 9.41488 19.3112 9.23919 19.8039 8.91003C20.2965 8.58086 20.6805 8.113 20.9072 7.56562C21.1339 7.01824 21.1932 6.41591 21.0777 5.83481C20.9621 5.25371 20.6768 4.71994 20.2578 4.30099C19.8389 3.88204 19.3051 3.59673 18.724 3.48115C18.1429 3.36556 17.5406 3.42488 16.9932 3.65162C16.4458 3.87835 15.9779 4.26231 15.6488 4.75494C15.3196 5.24757 15.1439 5.82675 15.1439 6.41923C15.1439 7.21373 15.4595 7.97569 16.0213 8.53748C16.5831 9.09927 17.3451 9.41488 18.1396 9.41488ZM18.1396 5.13539C18.3935 5.13539 18.6417 5.21068 18.8528 5.35175C19.064 5.49282 19.2285 5.69333 19.3257 5.92793C19.4229 6.16252 19.4483 6.42066 19.3988 6.6697C19.3492 6.91874 19.2269 7.1475 19.0474 7.32705C18.8678 7.5066 18.6391 7.62888 18.39 7.67842C18.141 7.72795 17.8829 7.70253 17.6483 7.60536C17.4137 7.50819 17.2132 7.34363 17.0721 7.1325C16.931 6.92138 16.8557 6.67316 16.8557 6.41923C16.8557 6.07874 16.991 5.75218 17.2318 5.51142C17.4725 5.27065 17.7991 5.13539 18.1396 5.13539ZM20.6131 15.9261C20.1784 15.6863 19.7952 15.3631 19.4855 14.975C19.1758 14.5869 18.9456 14.1416 18.8082 13.6644C18.5237 12.6858 17.9291 11.8259 17.114 11.214C16.2989 10.6022 15.3072 10.2714 14.288 10.2714C13.2688 10.2714 12.2771 10.6022 11.462 11.214C10.6469 11.8259 10.0524 12.6858 9.7678 13.6644C9.4929 14.6245 8.84843 15.4363 7.97576 15.9219C7.1386 16.3749 6.47636 17.094 6.09377 17.9656C5.71118 18.8372 5.63009 19.8114 5.86331 20.7343C6.09654 21.6571 6.63077 22.4758 7.38152 23.061C8.13226 23.6462 9.05667 23.9643 10.0085 23.9652C10.5789 23.9668 11.1438 23.8529 11.669 23.6303C13.3434 22.9398 15.223 22.9398 16.8974 23.6303C17.9116 24.0714 19.0572 24.1027 20.094 23.7177C21.1308 23.3327 21.9783 22.5613 22.4588 21.5652C22.9392 20.569 23.0154 19.4256 22.6714 18.3745C22.3273 17.3234 21.5897 16.4464 20.6131 15.9272V15.9261ZM18.5675 22.2534C18.22 22.2537 17.8761 22.1834 17.5565 22.0469C15.4602 21.181 13.1062 21.181 11.0099 22.0469C10.4007 22.3092 9.71368 22.3256 9.09267 22.0926C8.47167 21.8597 7.96489 21.3955 7.67849 20.7973C7.3921 20.199 7.3483 19.5132 7.55628 18.8834C7.76426 18.2536 8.20788 17.7287 8.79421 17.4186C9.42462 17.0705 9.98023 16.6015 10.4293 16.0384C10.8783 15.4754 11.2119 14.8294 11.4111 14.1373C11.592 13.5142 11.9703 12.9667 12.4891 12.577C13.0079 12.1874 13.6392 11.9768 14.288 11.9768C14.9368 11.9768 15.5681 12.1874 16.0869 12.577C16.6058 12.9667 16.984 13.5142 17.1649 14.1373C17.3647 14.8307 17.6994 15.4778 18.1498 16.0416C18.6001 16.6054 19.1573 17.0748 19.7893 17.4229C20.2941 17.6936 20.6939 18.1254 20.9251 18.6495C21.1562 19.1736 21.2055 19.76 21.065 20.3153C20.9246 20.8707 20.6024 21.3631 20.1499 21.7143C19.6973 22.0654 19.1403 22.2552 18.5675 22.2534Z"/>
</mask>
<path d="M23.275 8.55898C22.6825 8.55898 22.1033 8.73468 21.6107 9.06384C21.118 9.39301 20.7341 9.86087 20.5073 10.4082C20.2806 10.9556 20.2213 11.558 20.3369 12.1391C20.4525 12.7202 20.7378 13.2539 21.1567 13.6729C21.5757 14.0918 22.1094 14.3771 22.6905 14.4927C23.2716 14.6083 23.874 14.549 24.4214 14.3223C24.9687 14.0955 25.4366 13.7116 25.7658 13.2189C26.0949 12.7263 26.2706 12.1471 26.2706 11.5546C26.2706 10.7601 25.955 9.99818 25.3932 9.43639C24.8314 8.8746 24.0695 8.55898 23.275 8.55898ZM23.275 12.8385C23.021 12.8385 22.7728 12.7632 22.5617 12.6221C22.3506 12.481 22.186 12.2805 22.0888 12.0459C21.9917 11.8113 21.9662 11.5532 22.0158 11.3042C22.0653 11.0551 22.1876 10.8264 22.3671 10.6468C22.5467 10.4673 22.7755 10.345 23.0245 10.2955C23.2735 10.2459 23.5317 10.2713 23.7663 10.3685C24.0009 10.4657 24.2014 10.6302 24.3424 10.8414C24.4835 11.0525 24.5588 11.3007 24.5588 11.5546C24.5588 11.8951 24.4236 12.2217 24.1828 12.4625C23.942 12.7032 23.6155 12.8385 23.275 12.8385ZM8.29672 11.5546C8.29672 10.9622 8.12103 10.383 7.79186 9.89034C7.4627 9.39771 6.99484 9.01375 6.44746 8.78701C5.90007 8.56028 5.29775 8.50096 4.71665 8.61655C4.13555 8.73213 3.60178 9.01744 3.18283 9.43639C2.76388 9.85534 2.47857 10.3891 2.36298 10.9702C2.24739 11.5513 2.30672 12.1536 2.53345 12.701C2.76019 13.2484 3.14415 13.7163 3.63678 14.0454C4.12941 14.3746 4.70859 14.5503 5.30107 14.5503C6.09557 14.5503 6.85752 14.2347 7.41931 13.6729C7.98111 13.1111 8.29672 12.3491 8.29672 11.5546ZM5.30107 12.8385C5.04715 12.8385 4.79893 12.7632 4.5878 12.6221C4.37667 12.481 4.21212 12.2805 4.11495 12.0459C4.01778 11.8113 3.99235 11.5532 4.04189 11.3042C4.09143 11.0551 4.2137 10.8264 4.39325 10.6468C4.5728 10.4673 4.80156 10.345 5.0506 10.2955C5.29965 10.2459 5.55779 10.2713 5.79238 10.3685C6.02697 10.4657 6.22748 10.6302 6.36855 10.8414C6.50962 11.0525 6.58492 11.3007 6.58492 11.5546C6.58492 11.8951 6.44966 12.2217 6.20889 12.4625C5.96812 12.7032 5.64157 12.8385 5.30107 12.8385ZM10.4365 9.41488C11.029 9.41488 11.6081 9.23919 12.1008 8.91003C12.5934 8.58086 12.9774 8.113 13.2041 7.56562C13.4308 7.01824 13.4901 6.41591 13.3746 5.83481C13.259 5.25371 12.9737 4.71994 12.5547 4.30099C12.1358 3.88204 11.602 3.59673 11.0209 3.48115C10.4398 3.36556 9.83747 3.42488 9.29009 3.65162C8.7427 3.87835 8.27484 4.26231 7.94568 4.75494C7.61651 5.24757 7.44082 5.82675 7.44082 6.41923C7.44082 7.21373 7.75643 7.97569 8.31823 8.53748C8.88002 9.09927 9.64197 9.41488 10.4365 9.41488ZM10.4365 5.13539C10.6904 5.13539 10.9386 5.21068 11.1497 5.35175C11.3609 5.49282 11.5254 5.69333 11.6226 5.92793C11.7198 6.16252 11.7452 6.42066 11.6957 6.6697C11.6461 6.91874 11.5238 7.1475 11.3443 7.32705C11.1647 7.5066 10.936 7.62888 10.6869 7.67842C10.4379 7.72795 10.1798 7.70253 9.94516 7.60536C9.71057 7.50819 9.51006 7.34363 9.36899 7.1325C9.22792 6.92138 9.15262 6.67316 9.15262 6.41923C9.15262 6.07874 9.28788 5.75218 9.52865 5.51142C9.76942 5.27065 10.096 5.13539 10.4365 5.13539ZM18.1396 9.41488C18.7321 9.41488 19.3112 9.23919 19.8039 8.91003C20.2965 8.58086 20.6805 8.113 20.9072 7.56562C21.1339 7.01824 21.1932 6.41591 21.0777 5.83481C20.9621 5.25371 20.6768 4.71994 20.2578 4.30099C19.8389 3.88204 19.3051 3.59673 18.724 3.48115C18.1429 3.36556 17.5406 3.42488 16.9932 3.65162C16.4458 3.87835 15.9779 4.26231 15.6488 4.75494C15.3196 5.24757 15.1439 5.82675 15.1439 6.41923C15.1439 7.21373 15.4595 7.97569 16.0213 8.53748C16.5831 9.09927 17.3451 9.41488 18.1396 9.41488ZM18.1396 5.13539C18.3935 5.13539 18.6417 5.21068 18.8528 5.35175C19.064 5.49282 19.2285 5.69333 19.3257 5.92793C19.4229 6.16252 19.4483 6.42066 19.3988 6.6697C19.3492 6.91874 19.2269 7.1475 19.0474 7.32705C18.8678 7.5066 18.6391 7.62888 18.39 7.67842C18.141 7.72795 17.8829 7.70253 17.6483 7.60536C17.4137 7.50819 17.2132 7.34363 17.0721 7.1325C16.931 6.92138 16.8557 6.67316 16.8557 6.41923C16.8557 6.07874 16.991 5.75218 17.2318 5.51142C17.4725 5.27065 17.7991 5.13539 18.1396 5.13539ZM20.6131 15.9261C20.1784 15.6863 19.7952 15.3631 19.4855 14.975C19.1758 14.5869 18.9456 14.1416 18.8082 13.6644C18.5237 12.6858 17.9291 11.8259 17.114 11.214C16.2989 10.6022 15.3072 10.2714 14.288 10.2714C13.2688 10.2714 12.2771 10.6022 11.462 11.214C10.6469 11.8259 10.0524 12.6858 9.7678 13.6644C9.4929 14.6245 8.84843 15.4363 7.97576 15.9219C7.1386 16.3749 6.47636 17.094 6.09377 17.9656C5.71118 18.8372 5.63009 19.8114 5.86331 20.7343C6.09654 21.6571 6.63077 22.4758 7.38152 23.061C8.13226 23.6462 9.05667 23.9643 10.0085 23.9652C10.5789 23.9668 11.1438 23.8529 11.669 23.6303C13.3434 22.9398 15.223 22.9398 16.8974 23.6303C17.9116 24.0714 19.0572 24.1027 20.094 23.7177C21.1308 23.3327 21.9783 22.5613 22.4588 21.5652C22.9392 20.569 23.0154 19.4256 22.6714 18.3745C22.3273 17.3234 21.5897 16.4464 20.6131 15.9272V15.9261ZM18.5675 22.2534C18.22 22.2537 17.8761 22.1834 17.5565 22.0469C15.4602 21.181 13.1062 21.181 11.0099 22.0469C10.4007 22.3092 9.71368 22.3256 9.09267 22.0926C8.47167 21.8597 7.96489 21.3955 7.67849 20.7973C7.3921 20.199 7.3483 19.5132 7.55628 18.8834C7.76426 18.2536 8.20788 17.7287 8.79421 17.4186C9.42462 17.0705 9.98023 16.6015 10.4293 16.0384C10.8783 15.4754 11.2119 14.8294 11.4111 14.1373C11.592 13.5142 11.9703 12.9667 12.4891 12.577C13.0079 12.1874 13.6392 11.9768 14.288 11.9768C14.9368 11.9768 15.5681 12.1874 16.0869 12.577C16.6058 12.9667 16.984 13.5142 17.1649 14.1373C17.3647 14.8307 17.6994 15.4778 18.1498 16.0416C18.6001 16.6054 19.1573 17.0748 19.7893 17.4229C20.2941 17.6936 20.6939 18.1254 20.9251 18.6495C21.1562 19.1736 21.2055 19.76 21.065 20.3153C20.9246 20.8707 20.6024 21.3631 20.1499 21.7143C19.6973 22.0654 19.1403 22.2552 18.5675 22.2534Z" fill="#FF8A2B" stroke="#FF8A2B" stroke-width="2.2824" mask="url(#path-1-inside-1_423_4472)"/>
</svg>
