<svg width="34" height="34" viewBox="0 0 34 34" fill="none" xmlns="http://www.w3.org/2000/svg">
<path d="M17 0.75C13.7861 0.75 10.6443 1.70305 7.97199 3.48862C5.29969 5.27419 3.21689 7.81209 1.98696 10.7814C0.757041 13.7507 0.435237 17.018 1.06225 20.1702C1.68926 23.3224 3.23692 26.2179 5.50952 28.4905C7.78213 30.7631 10.6776 32.3108 13.8298 32.9378C16.982 33.5648 20.2493 33.243 23.2186 32.013C26.1879 30.7831 28.7258 28.7003 30.5114 26.028C32.297 23.3557 33.25 20.2139 33.25 17C33.2455 12.6916 31.5319 8.56102 28.4855 5.51454C25.439 2.46806 21.3084 0.75455 17 0.75ZM17 30.75C14.2805 30.75 11.6221 29.9436 9.36092 28.4327C7.09974 26.9218 5.33737 24.7744 4.29666 22.2619C3.25596 19.7494 2.98366 16.9847 3.51421 14.3175C4.04476 11.6503 5.35432 9.20025 7.27729 7.27728C9.20026 5.35431 11.6503 4.04475 14.3175 3.5142C16.9848 2.98366 19.7494 3.25595 22.2619 4.29666C24.7744 5.33736 26.9218 7.09973 28.4327 9.36091C29.9436 11.6221 30.75 14.2805 30.75 17C30.7459 20.6455 29.2959 24.1404 26.7182 26.7182C24.1404 29.2959 20.6455 30.7459 17 30.75ZM23.25 20.125C23.25 21.2853 22.7891 22.3981 21.9686 23.2186C21.1481 24.0391 20.0353 24.5 18.875 24.5H18.25V25.75C18.25 26.0815 18.1183 26.3995 17.8839 26.6339C17.6495 26.8683 17.3315 27 17 27C16.6685 27 16.3505 26.8683 16.1161 26.6339C15.8817 26.3995 15.75 26.0815 15.75 25.75V24.5H13.25C12.9185 24.5 12.6005 24.3683 12.3661 24.1339C12.1317 23.8995 12 23.5815 12 23.25C12 22.9185 12.1317 22.6005 12.3661 22.3661C12.6005 22.1317 12.9185 22 13.25 22H18.875C19.3723 22 19.8492 21.8025 20.2008 21.4508C20.5525 21.0992 20.75 20.6223 20.75 20.125C20.75 19.6277 20.5525 19.1508 20.2008 18.7992C19.8492 18.4475 19.3723 18.25 18.875 18.25H15.125C13.9647 18.25 12.8519 17.7891 12.0314 16.9686C11.2109 16.1481 10.75 15.0353 10.75 13.875C10.75 12.7147 11.2109 11.6019 12.0314 10.7814C12.8519 9.96094 13.9647 9.5 15.125 9.5H15.75V8.25C15.75 7.91848 15.8817 7.60054 16.1161 7.36612C16.3505 7.1317 16.6685 7 17 7C17.3315 7 17.6495 7.1317 17.8839 7.36612C18.1183 7.60054 18.25 7.91848 18.25 8.25V9.5H20.75C21.0815 9.5 21.3995 9.6317 21.6339 9.86612C21.8683 10.1005 22 10.4185 22 10.75C22 11.0815 21.8683 11.3995 21.6339 11.6339C21.3995 11.8683 21.0815 12 20.75 12H15.125C14.6277 12 14.1508 12.1975 13.7992 12.5492C13.4476 12.9008 13.25 13.3777 13.25 13.875C13.25 14.3723 13.4476 14.8492 13.7992 15.2008C14.1508 15.5525 14.6277 15.75 15.125 15.75H18.875C20.0353 15.75 21.1481 16.2109 21.9686 17.0314C22.7891 17.8519 23.25 18.9647 23.25 20.125Z" fill="#FF8A2B"/>
</svg>
