<svg width="42" height="42" viewBox="0 0 42 42" fill="none" xmlns="http://www.w3.org/2000/svg">
<path opacity="0.2" d="M39.375 28.875L34.5187 34.9453C34.3959 35.0988 34.2401 35.2227 34.0629 35.3079C33.8857 35.3931 33.6916 35.4374 33.495 35.4375H8.505C8.30839 35.4374 8.11432 35.3931 7.93712 35.3079C7.75992 35.2227 7.60413 35.0988 7.48125 34.9453L2.625 28.875H39.375ZM22.3125 1.3125L5.25 22.3125H22.3125V1.3125Z" fill="#00A3A5"/>
<path d="M40.5579 28.3057C40.4507 28.083 40.2828 27.8951 40.0736 27.7637C39.8643 27.6322 39.6222 27.5625 39.375 27.5625H23.625V23.625H35.4375C35.6918 23.625 35.9405 23.5511 36.1536 23.4124C36.3666 23.2737 36.5348 23.0761 36.6377 22.8436C36.7405 22.6111 36.7737 22.3537 36.733 22.1027C36.6924 21.8518 36.5798 21.618 36.4088 21.4299L23.625 7.36806V1.31251C23.6236 1.04197 23.5385 0.778498 23.3816 0.558141C23.2246 0.337785 23.0034 0.171316 22.7482 0.0815182C22.493 -0.00827963 22.2163 -0.0170191 21.9559 0.056496C21.6955 0.130011 21.4643 0.282188 21.2937 0.492201L4.2312 21.4922C4.07695 21.6848 3.98015 21.9171 3.95189 22.1622C3.92363 22.4074 3.96507 22.6556 4.07145 22.8783C4.17782 23.1009 4.34483 23.2891 4.55329 23.4212C4.76176 23.5533 5.00324 23.6239 5.25003 23.625H21V27.5625H2.62503C2.37768 27.5624 2.13533 27.6321 1.9259 27.7637C1.71647 27.8953 1.54849 28.0834 1.44131 28.3063C1.33414 28.5292 1.29214 28.7779 1.32015 29.0237C1.34816 29.2694 1.44505 29.5022 1.59964 29.6953L6.45589 35.7656C6.70126 36.0734 7.013 36.3218 7.36782 36.4923C7.72265 36.6627 8.11139 36.7508 8.50503 36.75H33.495C33.8887 36.7508 34.2774 36.6627 34.6322 36.4923C34.9871 36.3218 35.2988 36.0734 35.5442 35.7656L40.4004 29.6953C40.555 29.5021 40.6518 29.2691 40.6797 29.0232C40.7075 28.7774 40.6653 28.5286 40.5579 28.3057ZM32.4713 21H23.625V11.2695L32.4713 21ZM8.00792 21L21 5.00884V21H8.00792ZM33.495 34.125H8.50503L5.35503 30.1875H36.645L33.495 34.125Z" fill="#00A3A5"/>
</svg>
