<svg width="36" height="36" viewBox="0 0 36 36" fill="none" xmlns="http://www.w3.org/2000/svg">
<path d="M33.2906 14.0656C32.7016 13.45 32.0922 12.8156 31.8625 12.2578C31.65 11.7469 31.6375 10.9 31.625 10.0797C31.6016 8.55469 31.5766 6.82656 30.375 5.625C29.1734 4.42344 27.4453 4.39844 25.9203 4.375C25.1 4.3625 24.2531 4.35 23.7422 4.1375C23.1859 3.90781 22.55 3.29844 21.9344 2.70937C20.8562 1.67344 19.6312 0.5 18 0.5C16.3688 0.5 15.1453 1.67344 14.0656 2.70937C13.45 3.29844 12.8156 3.90781 12.2578 4.1375C11.75 4.35 10.9 4.3625 10.0797 4.375C8.55469 4.39844 6.82656 4.42344 5.625 5.625C4.42344 6.82656 4.40625 8.55469 4.375 10.0797C4.3625 10.9 4.35 11.7469 4.1375 12.2578C3.90781 12.8141 3.29844 13.45 2.70937 14.0656C1.67344 15.1437 0.5 16.3688 0.5 18C0.5 19.6312 1.67344 20.8547 2.70937 21.9344C3.29844 22.55 3.90781 23.1844 4.1375 23.7422C4.35 24.2531 4.3625 25.1 4.375 25.9203C4.39844 27.4453 4.42344 29.1734 5.625 30.375C6.82656 31.5766 8.55469 31.6016 10.0797 31.625C10.9 31.6375 11.7469 31.65 12.2578 31.8625C12.8141 32.0922 13.45 32.7016 14.0656 33.2906C15.1437 34.3266 16.3688 35.5 18 35.5C19.6312 35.5 20.8547 34.3266 21.9344 33.2906C22.55 32.7016 23.1844 32.0922 23.7422 31.8625C24.2531 31.65 25.1 31.6375 25.9203 31.625C27.4453 31.6016 29.1734 31.5766 30.375 30.375C31.5766 29.1734 31.6016 27.4453 31.625 25.9203C31.6375 25.1 31.65 24.2531 31.8625 23.7422C32.0922 23.1859 32.7016 22.55 33.2906 21.9344C34.3266 20.8562 35.5 19.6312 35.5 18C35.5 16.3688 34.3266 15.1453 33.2906 14.0656ZM31.4859 20.2047C30.7375 20.9859 29.9625 21.7938 29.5516 22.7859C29.1578 23.7391 29.1406 24.8281 29.125 25.8828C29.1094 26.9766 29.0922 28.1219 28.6063 28.6063C28.1203 29.0906 26.9828 29.1094 25.8828 29.125C24.8281 29.1406 23.7391 29.1578 22.7859 29.5516C21.7938 29.9625 20.9859 30.7375 20.2047 31.4859C19.4234 32.2344 18.625 33 18 33C17.375 33 16.5703 32.2312 15.7953 31.4859C15.0203 30.7406 14.2063 29.9625 13.2141 29.5516C12.2609 29.1578 11.1719 29.1406 10.1172 29.125C9.02344 29.1094 7.87812 29.0922 7.39375 28.6063C6.90937 28.1203 6.89062 26.9828 6.875 25.8828C6.85937 24.8281 6.84219 23.7391 6.44844 22.7859C6.0375 21.7938 5.2625 20.9859 4.51406 20.2047C3.76562 19.4234 3 18.625 3 18C3 17.375 3.76875 16.5703 4.51406 15.7953C5.25937 15.0203 6.0375 14.2063 6.44844 13.2141C6.84219 12.2609 6.85937 11.1719 6.875 10.1172C6.89062 9.02344 6.90781 7.87812 7.39375 7.39375C7.87969 6.90937 9.01719 6.89062 10.1172 6.875C11.1719 6.85937 12.2609 6.84219 13.2141 6.44844C14.2063 6.0375 15.0141 5.2625 15.7953 4.51406C16.5766 3.76562 17.375 3 18 3C18.625 3 19.4297 3.76875 20.2047 4.51406C20.9797 5.25937 21.7938 6.0375 22.7859 6.44844C23.7391 6.84219 24.8281 6.85937 25.8828 6.875C26.9766 6.89062 28.1219 6.90781 28.6063 7.39375C29.0906 7.87969 29.1094 9.01719 29.125 10.1172C29.1406 11.1719 29.1578 12.2609 29.5516 13.2141C29.9625 14.2063 30.7375 15.0141 31.4859 15.7953C32.2344 16.5766 33 17.375 33 18C33 18.625 32.2312 19.4297 31.4859 20.2047ZM25.1344 13.3656C25.2506 13.4817 25.3428 13.6196 25.4057 13.7713C25.4686 13.9231 25.501 14.0857 25.501 14.25C25.501 14.4143 25.4686 14.5769 25.4057 14.7287C25.3428 14.8804 25.2506 15.0183 25.1344 15.1344L16.3844 23.8844C16.2683 24.0006 16.1304 24.0928 15.9787 24.1557C15.8269 24.2186 15.6643 24.251 15.5 24.251C15.3357 24.251 15.1731 24.2186 15.0213 24.1557C14.8696 24.0928 14.7317 24.0006 14.6156 23.8844L10.8656 20.1344C10.6311 19.8998 10.4993 19.5817 10.4993 19.25C10.4993 18.9183 10.6311 18.6002 10.8656 18.3656C11.1002 18.1311 11.4183 17.9993 11.75 17.9993C12.0817 17.9993 12.3998 18.1311 12.6344 18.3656L15.5 21.2328L23.3656 13.3656C23.4817 13.2494 23.6196 13.1572 23.7713 13.0943C23.9231 13.0314 24.0857 12.999 24.25 12.999C24.4143 12.999 24.5769 13.0314 24.7287 13.0943C24.8804 13.1572 25.0183 13.2494 25.1344 13.3656Z" fill="#FF8A2B"/>
</svg>
