<svg width="27" height="28" viewBox="0 0 27 28" fill="none" xmlns="http://www.w3.org/2000/svg">
<path d="M12.2912 3.30121C12.8191 2.39263 14.1314 2.39263 14.6593 3.3012L17.1314 7.55568C17.3195 7.87941 17.632 8.112 17.9961 8.19933L22.7392 9.33708C23.7282 9.57433 24.1226 10.7689 23.4693 11.5484L20.2298 15.4135C19.9978 15.6903 19.8846 16.0476 19.9147 16.4075L20.338 21.4585C20.4246 22.4929 19.3737 23.244 18.4231 22.8268L14.0255 20.8973C13.6748 20.7434 13.2757 20.7434 12.925 20.8973L8.52749 22.8268C7.57686 23.244 6.5259 22.4929 6.61259 21.4585L7.03583 16.4075C7.06599 16.0476 6.95273 15.6903 6.72072 15.4135L3.48126 11.5484C2.82792 10.7689 3.22233 9.57433 4.21138 9.33708L8.95448 8.19933C9.31856 8.112 9.63101 7.87941 9.81911 7.55568L12.2912 3.30121Z" stroke="#ABABAB" stroke-width="1.7118"/>
</svg>
