<svg width="27" height="28" viewBox="0 0 27 28" fill="none" xmlns="http://www.w3.org/2000/svg">
<path d="M12.2912 3.30096C12.8191 2.39239 14.1314 2.39239 14.6593 3.30096L17.1314 7.55543C17.3195 7.87916 17.632 8.11176 17.9961 8.19909L22.7392 9.33683C23.7282 9.57408 24.1226 10.7686 23.4693 11.5482L20.2298 15.4133C19.9978 15.6901 19.8846 16.0473 19.9147 16.4073L20.338 21.4582C20.4246 22.4927 19.3737 23.2437 18.4231 22.8266L14.0255 20.897C13.6748 20.7431 13.2757 20.7431 12.925 20.897L8.52749 22.8266C7.57686 23.2437 6.5259 22.4927 6.61259 21.4582L7.03583 16.4073C7.06599 16.0473 6.95273 15.6901 6.72072 15.4133L3.48126 11.5482C2.82792 10.7686 3.22233 9.57408 4.21138 9.33683L8.95448 8.19909C9.31856 8.11176 9.63101 7.87916 9.81911 7.55543L12.2912 3.30096Z" stroke="#FF8A2B" stroke-width="1.7118"/>
</svg>
