<svg width="42" height="42" viewBox="0 0 42 42" fill="none" xmlns="http://www.w3.org/2000/svg">
<path opacity="0.2" d="M6.5625 10.5H14.4375V34.125H6.5625C6.2144 34.125 5.88056 33.9867 5.63442 33.7406C5.38828 33.4944 5.25 33.1606 5.25 32.8125V11.8125C5.25 11.4644 5.38828 11.1306 5.63442 10.8844C5.88056 10.6383 6.2144 10.5 6.5625 10.5ZM35.4375 10.5H27.5625V34.125H35.4375C35.7856 34.125 36.1194 33.9867 36.3656 33.7406C36.6117 33.4944 36.75 33.1606 36.75 32.8125V11.8125C36.75 11.4644 36.6117 11.1306 36.3656 10.8844C36.1194 10.6383 35.7856 10.5 35.4375 10.5Z" fill="#00A3A5"/>
<path d="M35.4375 9.1875H28.875V7.875C28.875 6.83071 28.4602 5.82919 27.7217 5.09077C26.9833 4.35234 25.9818 3.9375 24.9375 3.9375H17.0625C16.0182 3.9375 15.0167 4.35234 14.2783 5.09077C13.5398 5.82919 13.125 6.83071 13.125 7.875V9.1875H6.5625C5.86631 9.1875 5.19863 9.46406 4.70634 9.95634C4.21406 10.4486 3.9375 11.1163 3.9375 11.8125V32.8125C3.9375 33.5087 4.21406 34.1764 4.70634 34.6687C5.19863 35.1609 5.86631 35.4375 6.5625 35.4375H35.4375C36.1337 35.4375 36.8014 35.1609 37.2937 34.6687C37.7859 34.1764 38.0625 33.5087 38.0625 32.8125V11.8125C38.0625 11.1163 37.7859 10.4486 37.2937 9.95634C36.8014 9.46406 36.1337 9.1875 35.4375 9.1875ZM15.75 7.875C15.75 7.5269 15.8883 7.19306 16.1344 6.94692C16.3806 6.70078 16.7144 6.5625 17.0625 6.5625H24.9375C25.2856 6.5625 25.6194 6.70078 25.8656 6.94692C26.1117 7.19306 26.25 7.5269 26.25 7.875V9.1875H15.75V7.875ZM26.25 11.8125V32.8125H15.75V11.8125H26.25ZM6.5625 11.8125H13.125V32.8125H6.5625V11.8125ZM35.4375 32.8125H28.875V11.8125H35.4375V32.8125Z" fill="#00A3A5"/>
</svg>
